<?xml version="1.0" encoding="utf-8"?>
<!-- Generator: Adobe Illustrator 23.0.1, SVG Export Plug-In . SVG Version: 6.00 Build 0)  -->
<svg version="1.1" id="Calque_1" xmlns="http://www.w3.org/2000/svg" xmlns:xlink="http://www.w3.org/1999/xlink" x="0px" y="0px"
	 viewBox="0 0 518.2 293.6" style="enable-background:new 0 0 518.2 293.6;" xml:space="preserve">
<style type="text/css">
	.st0{fill:#020203;}
	.st1{fill:#FFFFFF;}
</style>
<rect x="-0.8" class="st0" width="519" height="208.5"/>
<g>
	<path class="st1" d="M406.3,67.9c0.4,6.1-4.3,14.6-7.8,16.8l-2.2-1.7c3.5-3.5,2.6-13.8,0-16.8v-0.4c2.2,0,6.1,0.4,7.8,1.3
		C405.4,67.4,405.8,67.9,406.3,67.9"/>
	<path class="st1" d="M448.6,120.6c0,11.2-8.7,19.8-23.3,19.8c-6.1,0-13.3-0.9-16.8-2.6c0,0-0.4-0.4-0.4-2.6
		c0-4.8,0.4-12.5,0.4-13.8h2.2c0.4,1.7,0.4,3.9,1.7,6.1c2.2,6.5,7.8,9.1,13.8,9.1c7.8,0,12.5-3.9,12.5-11.2c0-5.2-3.9-8.7-10.4-13.3
		l-4.3-3.5c-8.7-6.5-14.6-12.9-14.6-22c0-10.4,8.2-18.1,21.5-18.1c5.2,0,11.2,1.3,13.3,1.7c1.3,0,1.3,0.4,1.3,0.9
		c0,1.3-0.4,6.5-0.4,13.3h-2.2c-2.2-7.4-3.9-12-12.9-12c-7.8,0-12,4.8-12,9.5c0,4.3,3.9,9.1,10.7,14.2l4.3,3.5
		C444.3,106.8,448.6,111.9,448.6,120.6"/>
	<path class="st1" d="M292.3,107.3c-1.3,3.5-1.7,6.1-1.7,9.1v7.8v8.6c0,2.6,1.3,4.8,3.9,4.8c0.9,0,4.3,0.4,5.2,0.4v2.2h-30.2V138
		c0.9,0,4.8,0,6.1-0.4c0.9,0,3-0.4,3-4.8c0-3.9,0.4-6.9,0.4-8.6v-7.8c0-4.8-1.3-6.9-2.2-9.5c-0.4-1.7-12.9-23.3-15.5-28
		c-2.2-3.5-4.3-5.2-6.1-6.5c-1.3-0.4-3.9-0.9-5.2-0.9v-2.2h19c0,0,0.4,1.3,3,6.9c0.9,2.6,13.3,25.9,15.1,28c0,0,12.5-24.1,18.5-34.9
		h13.3v2.2c-4.3,0-6.5,1.7-9.5,5.2C306.5,80.1,294,103.4,292.3,107.3"/>
	<path class="st1" d="M172.9,124c0,0-2.2,10.4-2.6,12.9c-0.4,2.2-0.9,2.2-0.9,2.2h-47.8v-2.2c1.7,0,4.3,0,5.2-0.4
		c1.7-0.4,2.6-1.7,2.6-4.3c0.4-3.5,0.4-10.7,0.4-18.9V95.6V77.5c0-3.5-0.4-4.3-3.9-5.2h-4.3v-2.2H141v7.8V96v17.6
		c0,12.5,0,17.6,1.7,19.4c1.7,0.9,5.2,2.2,12.5,2.2c6.5,0,8.6-0.4,10.7-2.6c1.7-1.7,2.6-3.9,3.9-8.2h3L172.9,124L172.9,124z"/>
	<path class="st1" d="M116.5,124c0,0-2.2,10.4-2.6,12.9c-0.4,2.2-1.3,2.2-1.3,2.2H64.9v-2.2c1.3,0,4.3,0,5.2-0.4
		c1.7-0.4,2.6-1.7,2.6-4.3c0.4-3.5,0.4-10.7,0.4-18.9V95.6V77.5c0-3.5-0.4-4.3-3.9-5.2h-4.3v-2.2h19.4v7.8V96v17.6
		c0,12.5,0,17.6,1.7,19.4c1.7,0.9,5.2,2.2,12.5,2.2c6.5,0,8.7-0.4,10.7-2.6c1.7-1.7,2.6-3.9,3.9-8.2h3.5L116.5,124L116.5,124z"/>
	<path class="st1" d="M249.6,102.5c0,21.1-13.3,37.9-36.6,37.9c-25.4,0-34.9-19.4-34.9-36.2c0-17.2,10.7-36.2,36.2-36.2
		C236.7,68,249.6,82.3,249.6,102.5 M236.7,106.4c0-20.7-10.7-34-25.4-34c-10.7,0-21.1,8.2-21.1,29.3c0,17.6,9.1,34.4,25.4,34.4
		C229,136.1,236.7,125.8,236.7,106.4"/>
	<path class="st1" d="M393.9,102.9c0,12.5-4.8,21.5-9.5,26.7c-4.3,4.3-12.5,9.5-29.3,9.5h-34.9V137c6.1,0,8.6,0,9.1-4.8
		c0.4-3.9,0.4-13.8,0.4-18.9V95.7V77.6c0-3.5-1.3-4.3-3.9-5.2H321v-2.2h28.5c11.2,0,26.3,0,36.2,10.4
		C389.6,84.4,393.9,92.1,393.9,102.9 M382.2,106c0-22.4-14.6-32.3-34.4-32.3c-1.7,0-4.8,0.4-5.2,0.4c-0.9,0.4-0.9,1.3-0.9,2.2v18.1
		v25.8c0,9.5,0.4,11.2,1.7,12.9c1.7,1.7,4.3,2.6,11.2,2.6C373.2,136.1,382.2,125.8,382.2,106"/>
	<rect x="-0.8" y="214" class="st0" width="519" height="79.6"/>
	<path class="st1" d="M197.8,253.5l-3.1,9.3h-3.9l10-29.5h4.6l10.1,29.5h-4.1l-3.2-9.3L197.8,253.5L197.8,253.5z M207.5,250.5
		l-2.9-8.5c-0.7-1.9-1.1-3.7-1.5-5.4H203c-0.4,1.8-0.9,3.5-1.5,5.3l-2.9,8.5L207.5,250.5L207.5,250.5z"/>
	<path class="st1" d="M237.4,241.6c-0.1,1.5-0.2,3.2-0.2,5.8v12.3c0,4.9-1,7.8-3,9.7c-2.1,1.9-5,2.5-7.7,2.5c-2.5,0-5.3-0.6-7-1.8
		l1-2.9c1.4,0.9,3.6,1.7,6.2,1.7c3.9,0,6.8-2.1,6.8-7.4v-2.4h-0.1c-1.2,2-3.5,3.5-6.7,3.5c-5.2,0-9-4.5-9-10.3
		c0-7.2,4.7-11.2,9.5-11.2c3.7,0,5.7,1.9,6.6,3.7h0.1l0.2-3.2L237.4,241.6L237.4,241.6z M233.4,249.9c0-0.7,0-1.2-0.2-1.8
		c-0.7-2.2-2.6-4.1-5.4-4.1c-3.7,0-6.3,3.1-6.3,8c0,4.2,2.1,7.6,6.3,7.6c2.4,0,4.5-1.5,5.3-3.9c0.2-0.7,0.3-1.4,0.3-2.1L233.4,249.9
		L233.4,249.9z"/>
	<path class="st1" d="M245.8,252.8c0.1,5.2,3.4,7.3,7.3,7.3c2.8,0,4.4-0.5,5.9-1.1l0.7,2.8c-1.4,0.6-3.7,1.3-7,1.3
		c-6.5,0-10.4-4.3-10.4-10.7c0-6.4,3.8-11.4,9.9-11.4c6.9,0,8.7,6.1,8.7,10c0,0.8-0.1,1.4-0.1,1.8L245.8,252.8L245.8,252.8z
		 M257,250.1c0-2.4-1-6.3-5.3-6.3c-3.9,0-5.6,3.6-5.9,6.3H257z"/>
	<path class="st1" d="M265.5,247.3c0-2.2,0-4-0.2-5.7h3.4l0.2,3.5h0.1c1-2,3.5-4,7-4c2.9,0,7.5,1.7,7.5,9v12.6h-3.8v-12.2
		c0-3.4-1.3-6.3-4.9-6.3c-2.5,0-4.5,1.8-5.2,3.9c-0.2,0.5-0.3,1.1-0.3,1.8v12.7h-3.8L265.5,247.3L265.5,247.3z"/>
	<path class="st1" d="M304.9,261.9c-1,0.5-3.2,1.2-6.1,1.2c-6.4,0-10.5-4.3-10.5-10.8c0-6.5,4.5-11.2,11.4-11.2
		c2.3,0,4.3,0.6,5.3,1.1l-0.9,3c-0.9-0.5-2.4-1-4.5-1c-4.9,0-7.5,3.6-7.5,8c0,4.9,3.1,7.9,7.3,7.9c2.2,0,3.6-0.6,4.7-1L304.9,261.9z
		"/>
	<path class="st1" d="M311.6,241.6l4.6,12.5c0.5,1.4,1,3.1,1.4,4.3h0.1c0.4-1.3,0.8-2.9,1.4-4.4l4.2-12.4h4.1l-5.8,15.1
		c-2.8,7.3-4.6,11-7.3,13.3c-1.9,1.7-3.8,2.3-4.7,2.5l-1-3.2c1-0.3,2.2-0.9,3.4-1.9c1-0.8,2.4-2.3,3.2-4.3c0.2-0.4,0.3-0.7,0.3-0.9
		c0-0.2-0.1-0.5-0.3-1l-7.8-19.5h4.2V241.6z"/>
</g>
<rect x="0.7" y="207.4" class="st1" width="517.5" height="7.1"/>
</svg>
